Coordinates
version=1
nRows=6
nColumns=36
inDegrees=yes

Units are S.I. units (second, meters, Newtons, ...)
If the header above contains a line with 'inDegrees', this indicates whether rotational values are in degrees (yes) or radians (no).

endheader
time	pelvis_tilt	pelvis_list	pelvis_rotation	pelvis_tx	pelvis_ty	pelvis_tz	hip_flexion_r	hip_adduction_r	hip_rotation_r	knee_angle_r	knee_angle_r_beta	ankle_angle_r	subtalar_angle_r	mtp_angle_r	hip_flexion_l	hip_adduction_l	hip_rotation_l	knee_angle_l	knee_angle_l_beta	ankle_angle_l	subtalar_angle_l	mtp_angle_l	lumbar_extension	lumbar_bending	lumbar_rotation	arm_flex_r	arm_add_r	arm_rot_r	elbow_flex_r	pro_sup_r	arm_flex_l	arm_add_l	arm_rot_l	elbow_flex_l	pro_sup_l
      1.47916670	    -37.63922804	     -2.15005672	      3.98806144	     -0.97856008	      1.13047733	     -0.07521106	     65.31639824	      1.92539073	      3.24225976	     49.82217559	      0.86956100	     15.84879811	    -30.85792336	     -7.49999987	     66.60228885	      0.44221965	      7.95992400	     50.21964182	      0.87649810	     19.18450643	     -8.53604793	     -7.49999987	     -8.62114387	      2.93940555	     -2.87694550	     14.09250106	    -12.62276928	      4.64240879	     29.39383151	     76.06646879	     20.48771396	    -19.21951146	     20.77242012	     28.32294532	     64.65222131
      1.48333330	    -39.12439379	     -2.40097145	      3.64888541	     -0.98314120	      1.12645191	     -0.07333086	     67.35736670	      2.60468516	      3.79428840	     49.93461751	      0.87152349	     16.68557928	    -30.08100435	     -7.49999987	     69.21442800	      0.09027472	      7.99317703	     51.64626247	      0.90139733	     19.64879857	     -8.36628824	     -7.49999987	     -6.40489388	      2.88055658	     -2.76885353	     12.64720054	    -12.47032649	      3.85948428	     28.84725458	     75.35408560	     18.67558974	    -20.00675424	     20.03307445	     28.10273561	     64.57089214
      1.48750000	    -40.41350866	     -2.25718816	      3.18735103	     -0.99044725	      1.12339411	     -0.07676081	     69.43212131	      2.77063822	      4.27836749	     50.23085367	      0.87669378	     16.96304720	    -28.87289867	     -7.49999987	     71.43454082	      0.05844649	      7.80706974	     52.61272032	      0.91826520	     19.77519300	     -8.33386801	     -7.49999987	     -4.68339850	      2.66692618	     -2.54111862	     11.47645166	    -12.94073316	      3.76011437	     28.75813932	     75.86380056	     17.18922760	    -20.56394493	     20.04046506	     27.77478814	     64.87852468
      1.49166670	    -41.14451610	     -2.09760149	      2.85733324	     -0.99524670	      1.13136733	     -0.07963146	     70.26332241	      2.59657290	      4.46620206	     49.41035505	      0.86237338	     16.59663835	    -27.36640750	     -7.49999987	     72.25946713	      0.30687498	      7.87433041	     52.17040614	      0.91054536	     18.86903280	     -8.94080566	     -7.49999987	     -4.27643017	      2.76474478	     -2.47878354	     11.19233851	    -13.30958677	      3.16605609	     28.21492647	     76.09817299	     16.29025019	    -20.60385490	     19.63939433	     26.96407023	     65.00756553
      1.49583330	    -41.83355994	     -1.76189556	      2.42908387	     -0.99455027	      1.12448955	     -0.08066939	     71.17715321	      2.46440518	      4.68477093	     49.26288287	      0.85979951	     16.60509352	    -26.19468802	     -7.49999987	     73.13464191	      0.44097294	      7.81837765	     52.35797462	      0.91381905	     18.44919373	     -9.67337195	     -7.49999987	     -3.66966605	      2.57756769	     -2.19690053	     10.03516199	    -13.67847928	      1.33171740	     28.09508094	     81.00006124	     14.82990074	    -20.63080750	     18.92358885	     26.10477729	     68.01948860
      1.50000000	    -42.48149170	     -1.53619549	      2.32621375	     -0.99463154	      1.12095879	     -0.08254544	     72.06759612	      2.17824270	      4.96097025	     49.41884950	      0.86252164	     16.88560182	    -25.26517627	     -7.49999987	     74.00388094	      0.78476618	      7.86360306	     52.84929545	      0.92239421	     18.12827664	    -10.67073744	     -7.49999987	     -2.96165229	      2.51129175	     -2.54389103	      8.71522731	    -14.13777320	      0.69976548	     28.00588396	     80.51058558	     12.89706012	    -20.79776096	     18.52541057	     25.02326586	     67.78441962
